<?xml version="1.0" standalone="no"?>
<!DOCTYPE svg PUBLIC "-//W3C//DTD SVG 20010904//EN"
 "http://www.w3.org/TR/2001/REC-SVG-20010904/DTD/svg10.dtd">
<svg version="1.0" xmlns="http://www.w3.org/2000/svg"
 width="512.000000pt" height="512.000000pt" viewBox="0 0 512.000000 512.000000"
 preserveAspectRatio="xMidYMid meet">

<g transform="translate(0.000000,512.000000) scale(0.100000,-0.100000)"
fill="#000000" stroke="none">
<path d="M2492 4022 c-50 -47 -115 -201 -192 -459 -95 -314 -109 -478 -57
-630 l25 -72 -62 62 c-104 106 -320 200 -535 232 -115 18 -335 19 -414 4 -74
-15 -117 -51 -124 -104 -5 -40 -2 -44 80 -137 98 -109 254 -249 363 -324 150
-104 303 -162 447 -171 85 -6 87 -6 70 -25 -9 -10 -43 -35 -74 -54 -65 -39
-155 -132 -207 -213 -53 -82 -84 -158 -165 -397 -112 -329 -117 -366 -54 -404
44 -27 97 -25 194 9 155 54 322 169 474 327 97 101 151 179 232 334 52 98 67
120 73 105 63 -175 142 -304 273 -447 161 -176 459 -347 603 -348 39 0 54 6
80 29 30 27 33 34 31 83 -1 32 -22 115 -53 213 -143 440 -229 586 -425 724
l-80 56 85 7 c173 13 332 79 503 205 85 63 301 262 368 340 45 51 51 95 19
135 -92 117 -568 91 -866 -46 -94 -44 -156 -86 -226 -155 -32 -30 -58 -51 -58
-46 0 6 14 46 31 90 29 74 32 89 31 195 0 130 -23 261 -76 441 -62 212 -119
351 -175 427 -27 37 -36 42 -70 42 -29 0 -47 -7 -69 -28z m88 -356 c5 -111 10
-336 10 -501 1 -165 5 -322 9 -348 11 -64 39 -101 81 -105 47 -5 167 24 310
75 253 90 616 204 711 223 141 29 162 23 34 -10 -178 -46 -476 -159 -799 -304
-197 -89 -246 -120 -246 -158 0 -29 40 -102 139 -251 122 -184 402 -563 491
-664 43 -49 98 -133 87 -133 -3 0 -29 28 -57 63 -28 34 -69 82 -90 107 -21 25
-103 124 -182 221 -169 208 -394 465 -466 532 -51 47 -52 47 -78 31 -34 -23
-339 -355 -435 -475 -41 -51 -136 -170 -211 -264 -75 -93 -150 -183 -168 -200
-43 -39 -31 -18 50 85 133 171 169 219 325 435 247 341 325 474 311 528 -7 30
-60 58 -401 217 -286 134 -368 166 -574 226 -86 25 -158 47 -160 50 -19 19
243 -47 379 -96 799 -287 834 -292 860 -125 9 59 24 402 37 859 8 276 20 269
33 -18z"/>
</g>
</svg>
